<svg width="359" height="254" viewBox="0 0 359 254" fill="none" xmlns="http://www.w3.org/2000/svg">
<path d="M279.374 152.683L278.626 159.818C276.681 164.465 274.738 169.11 272.796 173.751C272.117 175.381 271.436 177.008 270.752 178.632C270.442 179.392 270.002 180.092 269.452 180.701C269.424 180.742 269.388 180.776 269.346 180.801C269.304 180.826 269.256 180.84 269.207 180.844C269.042 180.844 268.983 180.625 268.97 180.46C268.877 178.7 268.667 176.948 268.341 175.216C266.522 166.852 256.811 163.787 249.194 163.977C246.147 164.023 243.144 164.719 240.387 166.016C236.41 167.941 234.86 173.295 234.649 173.493L234.48 174.182L231.753 185.543C231.178 188.077 230.739 189.415 228.4 190.091C228.324 190.116 225.994 191.357 225.918 191.357C225.014 191.611 227.488 191.066 226.509 190.901L223.406 190.416L222.084 190.112L202.802 185.548C203.549 185.674 204.313 185.814 205.09 185.97L209.566 187.038L208.383 181.363C205.305 163.698 210.406 147.671 219.095 138.969C221.383 136.681 222.519 136.094 225.187 134.57L226.686 138.121C226.686 138.121 242.021 142.693 245.635 128.663C247.096 128.79 249.903 128.769 251.352 129.085C258.9 130.668 265.718 134.692 270.752 140.536C271.196 141.042 271.63 141.566 272.061 142.098L272.289 142.377C272.555 142.71 272.838 143.052 273.104 143.394L273.294 143.664C275.501 146.545 277.531 149.557 279.374 152.683Z" fill="#2D2D36"/>
<path d="M52.0005 158.5C44.5006 87.5 109.924 54.8922 139.42 52.1943C204.981 46.2032 169.54 28.1284 190.887 8.34782C212.234 -11.4327 292.948 21.1112 271.833 71.9369C250.719 122.762 320.421 66.351 349.942 130.73C354.219 140.072 356.278 150.276 355.959 160.546C355.586 171.397 352.792 182.027 347.78 191.659C338.352 210.076 320.839 226.483 295.511 236.649C291.773 238.172 287.86 239.542 283.773 240.757" stroke="#CCDDE2" stroke-width="4.52" stroke-miterlimit="10"/>
<path d="M304.841 178.836C304.33 184.802 300.286 185.773 300.286 185.773C296.866 187.796 291.613 185.621 290.554 181.83C290.538 181.789 290.53 181.747 290.528 181.703C289.684 178.456 288.037 174.285 285.825 169.721C281.561 159.402 276.017 148.999 268.907 140.77C263.873 134.926 257.055 130.903 249.506 129.319C249.481 129.319 249.468 129.294 249.443 129.294C239.432 126.28 234.56 120.124 232.449 114.221C232.449 114.221 232.449 114.221 232.449 114.196C231.546 110.468 230.625 106.833 231.119 104.633C231.964 100.778 232.386 96.6108 231.334 95.7664C230.013 94.6602 227.623 95.4793 221.543 96.7037C216.278 97.7846 213.471 97.1724 212.837 93.9551C212.737 93.4561 212.686 92.9482 212.685 92.4394C212.66 92.7603 211.419 91.4852 211.36 91.7892C210.963 93.4316 210.169 94.0902 208.438 94.8122C205.867 95.8804 204.815 100.005 204.435 102.754C204.039 105.68 205.356 109.716 206.399 112.465C205.065 110.941 203.536 111.118 201.146 112.043C200.547 112.271 199.035 112.207 197.841 111.789C198.009 111.644 198.208 111.539 198.423 111.481C198.807 111.354 196.021 109.97 196.426 109.881C200.484 108.965 202.759 105.583 202.278 102.606C201.083 95.112 202.675 86.2963 207.737 80.4571C213.319 74.0353 222.426 72.7011 230.135 75.6397C236.19 77.9407 241.915 82.661 244.013 88.9562C244.013 88.9815 244.013 89.0068 244.039 89.0322C244.306 89.8327 244.51 90.653 244.651 91.4852C245.424 96.1675 243.773 100.913 242.857 105.541C242.527 107.208 243.363 109.028 243.541 110.35C244.558 118.287 253.72 120.529 260.969 123.898C276.207 130.996 288.649 143.13 297.018 157.886C302.574 167.656 304.558 174.319 304.841 178.836Z" fill="#4D8F9B"/>
<path d="M224.512 132.996C224.347 133.085 224.182 133.173 224.03 133.275C221.294 134.843 218.778 136.768 216.549 139C207.864 147.702 202.764 163.729 205.842 181.394L207.024 187.039" stroke="#2D2D36" stroke-width="3.52" stroke-miterlimit="10"/>
<path d="M301.353 251.527C301.355 238.339 300.215 225.176 297.946 212.185C296.428 203.371 294.338 194.665 291.689 186.122C290.097 180.933 288.151 175.335 285.837 169.715C283.688 164.456 281.206 159.34 278.406 154.397C275.691 149.558 272.514 144.992 268.919 140.764C263.885 134.921 257.067 130.897 249.519 129.314C248.071 129.007 246.606 128.787 245.132 128.655" stroke="#2D2D36" stroke-width="3.52" stroke-miterlimit="10"/>
<path d="M145.297 136.758L145.081 136.72C142.503 136.288 139.857 136.511 137.387 137.366C134.917 138.222 132.7 139.684 130.942 141.618L116.502 157.35L114.813 159.207C114.708 159.321 114.609 159.441 114.518 159.566" stroke="#2D2D36" stroke-width="3.52" stroke-miterlimit="10"/>
<path d="M124.443 163.673L132.368 154.883L132.381 154.87" stroke="#2D2D36" stroke-width="3.52" stroke-miterlimit="10"/>
<path d="M193.382 209.077L230.659 222.212C234.249 223.477 238.069 223.955 241.86 223.612C245.651 223.268 249.323 222.113 252.628 220.224C255.932 218.335 258.791 215.756 261.01 212.663C263.229 209.571 264.756 206.037 265.487 202.301L274.307 157.276C274.758 154.964 274.737 152.585 274.245 150.281C273.753 147.978 272.8 145.797 271.444 143.871C271.066 143.329 270.654 142.81 270.211 142.318" stroke="#2D2D36" stroke-width="3.52" stroke-miterlimit="10"/>
<path d="M168.713 207.263C163.967 210.467 160.48 220.199 158.626 226.587C158.309 227.658 157.652 228.598 156.755 229.265C155.859 229.932 154.77 230.29 153.653 230.286C152.896 230.286 152.148 230.122 151.461 229.805C150.407 229.31 149.55 228.475 149.03 227.434C148.509 226.393 148.354 225.207 148.59 224.067C151.693 208.893 162.646 178.937 200.269 185.54C201.02 185.667 201.784 185.806 202.557 185.962L207.024 187.039L219.551 190.092L222.929 190.906C224.21 191.217 225.553 191.169 226.809 190.767C226.887 190.752 226.963 190.731 227.037 190.704C228.194 190.307 229.232 189.625 230.055 188.719C230.878 187.815 231.459 186.717 231.745 185.527L234.594 173.672L234.759 172.984L238.491 157.484" stroke="#2D2D36" stroke-width="3.52" stroke-miterlimit="10"/>
<path d="M150.363 158.678H137.595C136.139 158.678 134.744 158.1 133.714 157.071C132.685 156.041 132.106 154.645 132.106 153.189C132.106 151.734 132.685 150.338 133.714 149.308C134.744 148.279 136.139 147.701 137.595 147.701H155.683" stroke="#2D2D36" stroke-width="3.52" stroke-miterlimit="10"/>
<path d="M140.563 158.675C140.382 160.913 139.529 162.568 138.271 163.712C135.028 166.667 129.088 166.329 124.954 164.307" stroke="#2D2D36" stroke-width="3.52" stroke-miterlimit="10"/>
<path d="M116.519 157.344C112.858 152.919 113.606 146.92 116.447 142.284C124.507 129.128 142.924 131.653 154.868 137.12C164.545 141.537 173.023 148.174 181.277 154.794C185.309 158.028 189.27 161.397 193.099 164.927C193.802 165.563 194.64 166.032 195.551 166.297C196.461 166.563 197.419 166.618 198.354 166.46C199.289 166.301 200.175 165.933 200.947 165.382C201.719 164.832 202.356 164.113 202.81 163.28C204.921 159.383 207.205 155.132 207.636 153.954" stroke="#2D2D36" stroke-width="3.52" stroke-miterlimit="10"/>
<path d="M138.275 163.712C138.275 163.712 157.321 174.043 171.47 188.888" stroke="#2D2D36" stroke-width="3.52" stroke-miterlimit="10"/>
<path d="M164.064 212.866C161.953 216.471 163.768 221.766 167.758 223.033C172.854 224.677 178.241 225.217 183.561 224.616C189.367 223.94 193.226 219.148 195.767 213.66C195.951 213.251 196.047 212.808 196.049 212.361C196.051 211.913 195.958 211.47 195.777 211.06C195.597 210.65 195.332 210.283 195 209.982C194.667 209.681 194.276 209.454 193.85 209.315C193.082 209.062 192.247 209.108 191.511 209.444C190.776 209.779 190.194 210.38 189.882 211.126C189.037 213.077 187.733 215.517 186.002 216.615" stroke="#2D2D36" stroke-width="3.52" stroke-miterlimit="10"/>
<path d="M174.006 212.19C174.006 212.19 168.792 217.797 172.904 223.733C173.085 223.983 173.298 224.207 173.538 224.4" stroke="#2D2D36" stroke-width="3.52" stroke-miterlimit="10"/>
<path d="M180.884 213.115C180.884 213.115 176.063 223.966 182.248 224.76" stroke="#2D2D36" stroke-width="3.52" stroke-miterlimit="10"/>
<path d="M352.07 251.536H53.4658" stroke="#2D2D36" stroke-width="3.52" stroke-miterlimit="10"/>
<path d="M170.937 231.088H141.159C140.856 233.899 139.525 236.499 137.42 238.387C135.315 240.275 132.587 241.317 129.759 241.314H29.6699C29.6754 244.021 30.7533 246.615 32.6676 248.529C34.5815 250.443 37.176 251.521 39.8832 251.527H170.937C173.649 251.526 176.249 250.451 178.17 248.536C180.09 246.622 181.174 244.025 181.184 241.314V234.448C181.184 233.553 180.828 232.693 180.195 232.06C179.562 231.427 178.702 231.071 177.806 231.071L170.937 231.088Z" stroke="#2D2D36" stroke-width="3.52" stroke-miterlimit="10"/>
<path d="M124.954 164.307C125.832 165.521 126.463 166.895 126.812 168.352L140.918 227.183C141.23 228.46 141.311 229.782 141.159 231.088C140.857 233.899 139.525 236.499 137.42 238.387C135.315 240.275 132.587 241.318 129.759 241.314H27.8124C25.2378 241.314 22.7379 240.446 20.7167 238.851C18.6952 237.257 17.2698 235.027 16.6703 232.524L2.58958 173.697C2.18468 172.012 2.16737 170.259 2.53849 168.566C2.90961 166.874 3.65946 165.288 4.73229 163.928C5.80471 162.568 7.17182 161.468 8.73062 160.713C10.2894 159.957 11.9994 159.565 13.7317 159.566H115.67C117.345 159.562 119 159.929 120.516 160.639C122.033 161.349 123.374 162.385 124.444 163.674L124.954 164.307Z" stroke="#2D2D36" stroke-width="3.52" stroke-miterlimit="10"/>
<path d="M249.506 129.301C249.481 129.301 249.468 129.276 249.443 129.276C239.432 126.261 234.56 120.105 232.449 114.203C232.449 114.203 232.449 114.203 232.449 114.177C230.798 109.575 230.836 105.121 231.431 102.461C231.788 101.052 232.014 99.6136 232.107 98.1629C232.246 94.0548 229.232 95.0596 220.61 96.778C216.65 97.5802 214.116 96.0772 212.85 93.9408C212.727 93.7546 212.619 93.5582 212.529 93.3539C211.938 92.1105 211.693 90.7307 211.82 89.3598" stroke="#2D2D36" stroke-width="3.52" stroke-miterlimit="10"/>
<path d="M206.858 113.021C206.706 112.806 206.55 112.599 206.398 112.434C205.064 110.91 203.536 111.088 201.146 112.012C200.546 112.24 199.035 112.177 197.84 111.759C196.835 111.4 196.084 110.779 196.426 109.85C196.513 109.659 196.644 109.491 196.807 109.359C196.971 109.226 197.162 109.133 197.367 109.086C197.765 108.986 198.168 108.905 198.575 108.846C202.674 107.929 201.758 103.184 201.26 100.207C200.052 92.7172 201.657 83.9014 206.77 78.0623C212.402 71.6405 221.615 70.302 229.396 73.2406C236.24 75.8245 242.679 81.4315 244.013 88.9257C244.013 88.9511 244.013 88.9764 244.038 89.0017C244.064 89.0271 244.038 89.0651 244.038 89.0904C244.828 93.7727 244.038 98.8477 243.122 103.479C242.573 106.224 242.78 108.466 243.544 110.319C245.938 116.386 254.015 118.502 260.525 121.503C275.932 128.601 288.484 140.735 296.945 155.491C303.625 167.195 305.208 174.394 304.841 178.835C304.33 184.801 300.285 185.772 300.285 185.772C296.865 187.795 291.609 185.62 290.553 181.829C290.537 181.788 290.529 181.745 290.528 181.702C289.683 178.455 288.037 174.284 285.824 169.72" stroke="#2D2D36" stroke-width="3.52" stroke-miterlimit="10"/>
<path d="M211.803 89.3598C211.803 91.6186 210.739 93.8479 208.425 94.7979C205.824 95.8703 204.769 98.6949 204.389 101.443C203.858 105.468 204.724 109.553 206.842 113.016C208.805 116.276 212.001 119.869 216.527 119.869C224.82 119.869 228.375 115.87 228.375 115.87" stroke="#2D2D36" stroke-width="3.52" stroke-miterlimit="10"/>
<path d="M220.412 102.74C221.191 102.74 221.822 102.109 221.822 101.33C221.822 100.552 221.191 99.9201 220.412 99.9201C219.633 99.9201 219.002 100.552 219.002 101.33C219.002 102.109 219.633 102.74 220.412 102.74Z" fill="#2D2D36"/>
<path d="M208.008 103.563C208.787 103.563 209.418 102.932 209.418 102.153C209.418 101.375 208.787 100.743 208.008 100.743C207.229 100.743 206.598 101.375 206.598 102.153C206.598 102.932 207.229 103.563 208.008 103.563Z" fill="#2D2D36"/>
<path d="M214.092 100.004C214.092 100.004 213.387 105.573 213.669 106.337C213.952 107.101 215.717 106.227 215.717 106.227" stroke="#2D2D36" stroke-width="3.52" stroke-miterlimit="10"/>
<path d="M216.705 111.099C219.724 112.21 222.84 110.795 223.752 108.081" stroke="#2D2D36" stroke-width="3.52" stroke-miterlimit="10"/>
<path d="M227.711 103.368C229.759 100.469 229.012 96.4191 226.043 94.3212C223.074 92.2236 219.007 92.873 216.959 95.7719C214.911 98.6704 215.658 102.721 218.627 104.818C221.596 106.916 225.663 106.266 227.711 103.368Z" stroke="#2D2D36" stroke-width="3.52" stroke-miterlimit="10"/>
<path d="M211.22 104.197C213.267 101.299 212.521 97.2483 209.552 95.1508C206.583 93.0532 202.515 93.7026 200.468 96.6015C198.42 99.5 199.167 103.55 202.136 105.648C205.105 107.745 209.172 107.096 211.22 104.197Z" stroke="#2D2D36" stroke-width="3.52" stroke-miterlimit="10"/>
<path d="M205.727 95.9226C206.9 95.9192 208.03 96.3596 208.892 97.155C209.753 97.9509 210.282 99.0427 210.371 100.212C210.418 100.793 210.348 101.378 210.164 101.93C209.979 102.483 209.685 102.993 209.299 103.429C208.908 103.872 208.433 104.231 207.9 104.485C207.368 104.739 206.789 104.882 206.2 104.907H205.963C204.79 104.911 203.659 104.47 202.797 103.673C201.936 102.876 201.408 101.783 201.319 100.613C201.273 100.032 201.345 99.4476 201.53 98.8949C201.715 98.3423 202.009 97.8322 202.396 97.3961C202.786 96.9549 203.261 96.5969 203.793 96.3427C204.325 96.0889 204.902 95.9445 205.491 95.9184H205.727V95.9226ZM205.727 94.9642H205.444C204.732 94.9958 204.034 95.1706 203.391 95.4772C202.748 95.7841 202.174 96.2169 201.701 96.7501C201.228 97.2834 200.868 97.9061 200.641 98.5813C200.413 99.2564 200.324 99.9703 200.378 100.681C200.492 102.089 201.131 103.402 202.168 104.36C203.205 105.319 204.564 105.853 205.976 105.857H206.259C206.971 105.825 207.669 105.651 208.312 105.344C208.955 105.037 209.529 104.604 210.002 104.071C210.475 103.538 210.835 102.915 211.062 102.24C211.29 101.565 211.38 100.851 211.326 100.14C211.211 98.7328 210.572 97.4197 209.535 96.4609C208.498 95.5021 207.139 94.968 205.727 94.9642Z" fill="#E2E2E2"/>
<path d="M215.822 99.915L212.36 100.092" stroke="#2D2D36" stroke-width="3.52" stroke-miterlimit="10"/>
<path opacity="0.53" d="M226.886 102.786C228.621 100.331 227.988 96.9009 225.475 95.1251C222.96 93.3493 219.517 93.8994 217.782 96.3541C216.048 98.8093 216.68 102.239 219.194 104.015C221.708 105.791 225.152 105.241 226.886 102.786Z" fill="#E2E2E2"/>
<path opacity="0.53" d="M210.396 103.615C212.13 101.161 211.498 97.7306 208.984 95.9547C206.471 94.1785 203.027 94.7291 201.292 97.1838C199.558 99.6389 200.19 103.069 202.704 104.844C205.218 106.621 208.661 106.07 210.396 103.615Z" fill="#E2E2E2"/>
<path d="M218.997 119.87L226.686 138.134C226.686 138.134 241.518 142.124 245.123 128.09" stroke="#2D2D36" stroke-width="3.52" stroke-miterlimit="10"/>
<path d="M73.1194 214.532C78.9261 212.701 81.9655 205.927 79.9081 199.402C77.8507 192.878 71.4757 189.072 65.6695 190.903C59.8629 192.734 56.8234 199.508 58.8808 206.032C60.9378 212.557 67.3127 216.363 73.1194 214.532Z" fill="#4D8F9B"/>
<path d="M216.945 251.527C216.781 236.661 214.159 221.972 212.951 215.977" stroke="#2D2D36" stroke-width="3.52" stroke-miterlimit="10"/>
</svg>
